<svg width="64" height="64" viewBox="0 0 64 64" fill="none" xmlns="http://www.w3.org/2000/svg">
<g clip-path="url(#clip0_9_17431)">
<path d="M32 64C49.6731 64 64 49.6731 64 32C64 14.3269 49.6731 0 32 0C14.3269 0 0 14.3269 0 32C0 49.6731 14.3269 64 32 64Z" fill="white"/>
<path d="M19.3401 44.4797L38.2487 63.3883C50.9091 60.882 60.8821 50.9087 63.3885 38.2485L44.642 19.502L19.3401 44.4797Z" fill="#E9EDF5"/>
<path d="M31.9999 49.7777C41.8183 49.7777 49.7777 41.8183 49.7777 31.9999C49.7777 22.1815 41.8183 14.2222 31.9999 14.2222C22.1815 14.2222 14.2222 22.1815 14.2222 31.9999C14.2222 41.8183 22.1815 49.7777 31.9999 49.7777Z" fill="#FFCB6D"/>
<path d="M49.7777 31.9999C49.7777 22.1817 41.8185 14.2222 32 14.2222V49.7777C41.8185 49.7777 49.7777 41.8182 49.7777 31.9999Z" fill="#FFC61B"/>
<path d="M27.4748 28.6058C26.9393 28.6058 26.505 28.1716 26.505 27.6361C26.505 26.5666 25.6351 25.6967 24.5656 25.6967C23.4961 25.6967 22.6263 26.5666 22.6263 27.6361C22.6263 28.1716 22.192 28.6058 21.6565 28.6058C21.121 28.6058 20.6868 28.1716 20.6868 27.6361C20.6868 25.4973 22.4269 23.7573 24.5655 23.7573C26.7041 23.7573 28.4443 25.4974 28.4443 27.6361C28.4445 28.1717 28.0105 28.6058 27.4748 28.6058Z" fill="#20184E"/>
<path d="M42.3434 28.6058C41.8079 28.6058 41.3737 28.1716 41.3737 27.6361C41.3737 26.5666 40.5038 25.6967 39.4343 25.6967C38.3648 25.6967 37.4949 26.5666 37.4949 27.6361C37.4949 28.1716 37.0607 28.6058 36.5252 28.6058C35.9897 28.6058 35.5554 28.1716 35.5554 27.6361C35.5554 25.4973 37.2955 23.7573 39.4342 23.7573C41.5728 23.7573 43.3129 25.4974 43.3129 27.6361C43.3132 28.1717 42.8792 28.6058 42.3434 28.6058Z" fill="#20184E"/>
<path d="M31.9996 38.3767C27.9855 38.3767 24.4121 35.8581 23.3101 32.2518C23.1709 31.7967 23.4271 31.3147 23.8825 31.1757C24.3383 31.0365 24.8196 31.2927 24.9586 31.7481C25.8413 34.6358 28.7366 36.6528 31.9998 36.6528C35.2631 36.6528 38.1584 34.6361 39.0409 31.7481C39.1799 31.2932 39.6606 31.0361 40.117 31.1757C40.5721 31.315 40.8285 31.7967 40.6894 32.2518C39.5874 35.8581 36.0143 38.3767 31.9996 38.3767Z" fill="#7A5AF8"/>
<path d="M40.117 31.1756C39.6606 31.0362 39.1796 31.2931 39.0408 31.748C38.1585 34.6357 35.2631 36.6527 31.9997 36.6527C31.9756 36.6527 31.9521 36.6501 31.9282 36.65V38.3752C31.9521 38.3755 31.9758 38.3765 31.9997 38.3765C36.0142 38.3765 39.5875 35.8579 40.6892 32.2516C40.8285 31.7966 40.5723 31.3146 40.117 31.1756Z" fill="#6941C6"/>
</g>
<defs>
<clipPath id="clip0_9_17431">
<rect width="64" height="64" fill="white"/>
</clipPath>
</defs>
</svg>
