<svg width="64" height="64" viewBox="0 0 64 64" fill="none" xmlns="http://www.w3.org/2000/svg">
<g clip-path="url(#clip0_9_17458)">
<path d="M31.9871 63.9874C49.6531 63.9874 63.9743 49.6663 63.9743 32.0003C63.9743 14.3343 49.6531 0.0131836 31.9871 0.0131836C14.3211 0.0131836 0 14.3343 0 32.0003C0 49.6663 14.3211 63.9874 31.9871 63.9874Z" fill="white"/>
<path d="M11.575 31.798L16.4008 36.4604L15.7016 38.2888L40.3776 62.862C53.7832 59.2433 63.701 47.131 64 32.6533L55.2971 23.9403L51.1596 24.48L42.0016 15.322L11.575 31.798Z" fill="#E9EDF5"/>
<path d="M39.9986 14.1838H12.9929C11.7059 14.1838 10.6625 15.2272 10.6625 16.5142V29.9487C10.6625 31.2357 11.7059 32.2791 12.9929 32.2791H15.1863V37.3878C15.1863 38.386 16.3932 38.886 17.0991 38.1801L23 32.279H39.9986C41.2856 32.279 42.329 31.2356 42.329 29.9486V16.5141C42.329 15.2271 41.2856 14.1838 39.9986 14.1838Z" fill="#8F61FA"/>
<path d="M39.9987 14.1836H31.9155V32.2788H39.9987C41.2857 32.2788 42.329 31.2355 42.329 29.9485V16.5141C42.329 15.2271 41.2857 14.1836 39.9987 14.1836Z" fill="#7241D9"/>
<path d="M26.5643 23.2314H53.57C54.857 23.2314 55.9004 24.2748 55.9004 25.5618V38.9963C55.9004 40.2833 54.857 41.3267 53.57 41.3267H51.3765V46.4353C51.3765 47.4334 50.1696 47.9334 49.4638 47.2276L43.5629 41.3264H26.5643C25.2773 41.3264 24.2339 40.2831 24.2339 38.9961V25.5617C24.2338 24.2749 25.2773 23.2314 26.5643 23.2314Z" fill="#FFD251"/>
<path d="M53.57 23.2314H31.9155V41.3267H43.5629L49.4638 47.2278C50.1697 47.9337 51.3765 47.4337 51.3765 46.4356V41.3269H53.57C54.857 41.3269 55.9004 40.2836 55.9004 38.9966V25.5622C55.9005 24.2749 54.857 23.2314 53.57 23.2314Z" fill="#FFC50C"/>
</g>
<defs>
<clipPath id="clip0_9_17458">
<rect width="64" height="64" fill="white"/>
</clipPath>
</defs>
</svg>
