<svg width="64" height="64" viewBox="0 0 64 64" fill="none" xmlns="http://www.w3.org/2000/svg">
<g clip-path="url(#clip0_9_17403)">
<path d="M32 64C49.6731 64 64 49.6731 64 32C64 14.3269 49.6731 0 32 0C14.3269 0 0 14.3269 0 32C0 49.6731 14.3269 64 32 64Z" fill="white"/>
<path d="M64 32C64 30.839 63.9366 29.6928 63.816 28.5639L51.4547 16.2026L42.3515 24.5339L37.3208 19.5033L32.3193 28.3689L35.1107 31.1603L28.1931 33.5804L10.8761 39.1159L35.562 63.8018C51.5583 62.0298 64 48.4689 64 32Z" fill="#E9EDF5"/>
<path d="M29.2081 38.8159H19.0944V43.5153H29.2081V38.8159Z" fill="#324A5E"/>
<path d="M29.2091 38.8159H24.1713V43.5153H29.2091V38.8159Z" fill="#2B3B4E"/>
<path d="M36.6746 39.4799H11.6286C11.0973 39.4799 10.6666 39.0492 10.6666 38.5179V20.2144C10.6666 19.6831 11.0974 19.2524 11.6286 19.2524H36.6746C37.206 19.2524 37.6366 19.6832 37.6366 20.2144V38.5178C37.6367 39.0492 37.206 39.4799 36.6746 39.4799Z" fill="#2B3B4E"/>
<path d="M36.6747 19.252H24.1707V39.4795H36.6745C37.2059 39.4795 37.6365 39.0487 37.6365 38.5176V20.2141C37.6368 19.6827 37.206 19.252 36.6747 19.252Z" fill="#1D2C3A"/>
<path d="M36.6157 20.4023H11.6881V38.331H36.6157V20.4023Z" fill="#9E77ED"/>
<path d="M36.6158 20.4023H24.1713V38.331H36.6158V20.4023Z" fill="#7241D9"/>
<path d="M29.6284 45.0472H18.6752C17.9762 45.0472 17.4092 44.4804 17.4092 43.7812V42.9418C17.4092 42.2428 17.9759 41.6758 18.6752 41.6758H29.6284C30.3274 41.6758 30.8944 42.2425 30.8944 42.9418V43.7812C30.8942 44.4804 30.3274 45.0472 29.6284 45.0472Z" fill="#2B3B4E"/>
<path d="M29.6284 41.6763H24.1708V45.0475H29.6284C30.3274 45.0475 30.8944 44.4808 30.8944 43.7815V42.9421C30.8942 42.2429 30.3274 41.6763 29.6284 41.6763Z" fill="#1D2C3A"/>
<path d="M50.5767 46.2221H39.8159C39.0636 46.2221 38.4537 45.6122 38.4537 44.86V17.243C38.4537 16.4907 39.0636 15.8809 39.8159 15.8809H50.5767C51.329 15.8809 51.9389 16.4907 51.9389 17.243V44.86C51.9389 45.6122 51.3291 46.2221 50.5767 46.2221Z" fill="#2B3B4E"/>
<path d="M50.5768 15.8809H45.1448V46.222H50.5768C51.329 46.222 51.9389 45.6121 51.9389 44.8599V17.243C51.9389 16.4907 51.3292 15.8809 50.5768 15.8809Z" fill="#1D2C3A"/>
<path d="M45.1965 38.714C45.7043 38.714 46.116 38.3023 46.116 37.7945C46.116 37.2867 45.7043 36.875 45.1965 36.875C44.6887 36.875 44.277 37.2867 44.277 37.7945C44.277 38.3023 44.6887 38.714 45.1965 38.714Z" fill="#84DBFF"/>
<path d="M45.1965 41.3195C45.7043 41.3195 46.116 40.9078 46.116 40.4C46.116 39.8921 45.7043 39.4805 45.1965 39.4805C44.6887 39.4805 44.277 39.8921 44.277 40.4C44.277 40.9078 44.6887 41.3195 45.1965 41.3195Z" fill="#4CDBC4"/>
<path d="M51.0211 19.9155H39.374V21.9588H51.0211V19.9155Z" fill="#324A5E"/>
<path d="M51.0211 17.209H39.374V19.2522H51.0211V17.209Z" fill="#324A5E"/>
<path d="M51.0211 22.624H39.374V24.6673H51.0211V22.624Z" fill="#324A5E"/>
<path d="M44.277 37.7939C44.277 38.2841 44.6616 38.6809 45.1447 38.7083V36.8799C44.6615 36.907 44.277 37.3039 44.277 37.7939Z" fill="#D7D1FF"/>
<path d="M45.1965 36.8745C45.1789 36.8745 45.1623 36.8788 45.145 36.8796V38.708C45.1625 38.7091 45.1789 38.7131 45.1965 38.7131C45.7043 38.7131 46.116 38.3015 46.116 37.7936C46.116 37.2859 45.7041 36.8745 45.1965 36.8745Z" fill="#BFB7FF"/>
<path d="M44.277 40.399C44.277 40.8892 44.6616 41.286 45.1447 41.3134V39.4849C44.6615 39.512 44.277 39.909 44.277 40.399Z" fill="#B57FDF"/>
<path d="M45.1965 39.48C45.1789 39.48 45.1623 39.4842 45.145 39.4851V41.3135C45.1625 41.3146 45.1789 41.3186 45.1965 41.3186C45.7043 41.3186 46.116 40.907 46.116 40.3991C46.116 39.8914 45.7041 39.48 45.1965 39.48Z" fill="#7241D9"/>
<path d="M51.019 19.9155H45.1448V21.9588H51.019V19.9155Z" fill="#2B3B4E"/>
<path d="M51.019 17.209H45.1448V19.2522H51.019V17.209Z" fill="#2B3B4E"/>
<path d="M51.019 22.624H45.1448V24.6673H51.019V22.624Z" fill="#2B3B4E"/>
</g>
<defs>
<clipPath id="clip0_9_17403">
<rect width="64" height="64" fill="white"/>
</clipPath>
</defs>
</svg>
