<svg width="64" height="64" viewBox="0 0 64 64" fill="none" xmlns="http://www.w3.org/2000/svg">
<g clip-path="url(#clip0_9_17465)">
<path d="M32 64C49.6731 64 64 49.6731 64 32C64 14.3269 49.6731 0 32 0C14.3269 0 0 14.3269 0 32C0 49.6731 14.3269 64 32 64Z" fill="white"/>
<path d="M32.6055 63.9922C48.8417 63.6907 62.1203 51.2982 63.8155 35.4401L53.1239 24.7486L52.8604 25.1492L45.5347 17.8231L42.844 17.2102L34.3437 8.54785L33.7584 12.6331L22.9885 15.0874L14.4738 23.6021L13.935 25.6435L11.5004 29.1599L15.1558 32.8152L6.42529 37.8126L32.6055 63.9922Z" fill="#E9EDF5"/>
<path d="M51.6094 32.0001C51.6094 21.2353 42.8903 12.4702 32.1437 12.3926V13.6872C42.1772 13.7652 50.3164 21.9486 50.3164 32.0001C50.3164 42.0516 42.1773 50.2351 32.1438 50.313V51.6076C42.8904 51.5299 51.6094 42.7648 51.6094 32.0001Z" fill="#7A5AF8"/>
<path d="M32 50.3164C21.9003 50.3164 13.6835 42.0996 13.6835 31.9999C13.6835 21.9001 21.9003 13.6834 32 13.6834C32.0483 13.6834 32.0956 13.6866 32.1437 13.687V12.3924C32.0957 12.392 32.0481 12.3904 32 12.3904C21.1873 12.3904 12.3906 21.187 12.3906 31.9998C12.3906 42.8125 21.1873 51.6093 32 51.6093C32.048 51.6093 32.0956 51.6078 32.1437 51.6073V50.3126C32.0956 50.3131 32.0483 50.3164 32 50.3164Z" fill="#988BFC"/>
<path d="M25.0049 21.8412C25.0049 17.9782 28.1368 14.8464 32 14.8464C35.8633 14.8464 38.9951 17.9782 38.9951 21.8414L25.0049 21.8412Z" fill="#9E77ED"/>
<path d="M32.1078 14.8491V21.8412H38.9952C38.9952 18.0141 35.9213 14.9069 32.1078 14.8491Z" fill="#7A5AF8"/>
<path d="M32.1121 13.9316C33.8522 13.9316 35.2629 12.5209 35.2629 10.7808C35.2629 9.04058 33.8522 7.62988 32.1121 7.62988C30.3719 7.62988 28.9612 9.04058 28.9612 10.7808C28.9612 12.5209 30.3719 13.9316 32.1121 13.9316Z" fill="#9E77ED"/>
<path d="M32.1129 7.63086C32.1112 7.63086 32.1094 7.63111 32.1078 7.63111V13.9326C32.1095 13.9326 32.1113 13.9329 32.1129 13.9329C33.8532 13.9329 35.2638 12.5222 35.2638 10.782C35.2638 9.04173 33.8533 7.63086 32.1129 7.63086Z" fill="#7A5AF8"/>
<path d="M25.0049 53.7831C25.0049 49.9201 28.1368 46.7883 32 46.7883C35.8633 46.7883 38.9951 49.9201 38.9951 53.7833L25.0049 53.7831Z" fill="#9E77ED"/>
<path d="M32.1078 46.7908V53.7829H38.9952C38.9952 49.9561 35.9213 46.8488 32.1078 46.7908Z" fill="#7A5AF8"/>
<path d="M32.1121 45.8735C33.8522 45.8735 35.2629 44.4628 35.2629 42.7227C35.2629 40.9825 33.8522 39.5718 32.1121 39.5718C30.3719 39.5718 28.9612 40.9825 28.9612 42.7227C28.9612 44.4628 30.3719 45.8735 32.1121 45.8735Z" fill="#9E77ED"/>
<path d="M32.1129 39.5728C32.1112 39.5728 32.1094 39.573 32.1078 39.573V45.8745C32.1095 45.8745 32.1113 45.8748 32.1129 45.8748C33.8532 45.8748 35.2638 44.4641 35.2638 42.7239C35.2638 40.9834 33.8533 39.5728 32.1129 39.5728Z" fill="#7A5AF8"/>
<path d="M6.42529 37.8121C6.42529 33.9491 9.55717 30.8174 13.4204 30.8174C17.2837 30.8174 20.4155 33.9491 20.4155 37.8124L6.42529 37.8121Z" fill="#FFCE00"/>
<path d="M13.5281 30.8201V37.8122H20.4155C20.4156 33.9853 17.3413 30.8781 13.5281 30.8201Z" fill="#FDBA12"/>
<path d="M13.5332 29.9038C15.2734 29.9038 16.6841 28.4931 16.6841 26.7529C16.6841 25.0127 15.2734 23.6021 13.5332 23.6021C11.793 23.6021 10.3823 25.0127 10.3823 26.7529C10.3823 28.4931 11.793 29.9038 13.5332 29.9038Z" fill="#FFCE00"/>
<path d="M13.5332 23.6018C13.5315 23.6018 13.5297 23.6021 13.5281 23.6021V29.9036C13.5298 29.9036 13.5316 29.9038 13.5332 29.9038C15.2735 29.9038 16.6841 28.4932 16.6841 26.7529C16.6841 25.0127 15.2733 23.6021 13.5332 23.6018Z" fill="#FDBA12"/>
<path d="M43.5846 37.8121C43.5846 33.9491 46.7165 30.8174 50.5797 30.8174C54.443 30.8174 57.5748 33.9491 57.5748 37.8124L43.5846 37.8121Z" fill="#FFCE00"/>
<path d="M50.6874 30.8201V37.8122H57.5748C57.5748 33.9853 54.5009 30.8781 50.6874 30.8201Z" fill="#FDBA12"/>
<path d="M50.6936 29.9038C52.4338 29.9038 53.8445 28.4931 53.8445 26.7529C53.8445 25.0127 52.4338 23.6021 50.6936 23.6021C48.9534 23.6021 47.5427 25.0127 47.5427 26.7529C47.5427 28.4931 48.9534 29.9038 50.6936 29.9038Z" fill="#FFCE00"/>
<path d="M50.6925 23.6018C50.6908 23.6018 50.689 23.6021 50.6874 23.6021V29.9036C50.6891 29.9036 50.6909 29.9038 50.6925 29.9038C52.4328 29.9038 53.8434 28.4932 53.8434 26.7529C53.8436 25.0127 52.4328 23.6021 50.6925 23.6018Z" fill="#FDBA12"/>
</g>
<defs>
<clipPath id="clip0_9_17465">
<rect width="64" height="64" fill="white"/>
</clipPath>
</defs>
</svg>
