<svg width="64" height="64" viewBox="0 0 64 64" fill="none" xmlns="http://www.w3.org/2000/svg">
<g clip-path="url(#clip0_9_17486)">
<path d="M32.0001 63.9562C49.6611 63.9562 63.9782 49.6392 63.9782 31.9781C63.9782 14.3171 49.6611 0 32.0001 0C14.3391 0 0.0219727 14.3171 0.0219727 31.9781C0.0219727 49.6392 14.3391 63.9562 32.0001 63.9562Z" fill="white"/>
<path d="M63.9264 33.8309L49.7658 19.6704L39.413 18.8741V17.7657L32.5803 19.6706L38.9989 26.0892V29.8432L33.8058 24.6502L28.0883 21.3906L25.8 23.6788L16.4213 14.2998L15.8855 46.7263L16.168 47.3211L13.7849 47.8884L29.8209 63.9244C30.5413 63.9729 31.2675 63.9998 32.0002 63.9998C49.0538 64.0001 62.9882 50.6502 63.9264 33.8309Z" fill="#E9EDF5"/>
<path d="M33.8058 24.6501L26.7487 17.593L19.6914 24.6501H23.4218V47.5339H30.0754V24.6501H33.8058Z" fill="#7E5EC9"/>
<path d="M26.7488 17.593L26.6887 17.6531V47.5339H30.0756V24.6501L33.806 24.65L26.7488 17.593Z" fill="#6941C6"/>
<path d="M49.7658 19.6704L41.1731 11.0776L32.5803 19.6704H37.1223V47.5339H45.2236V19.6704H49.7658Z" fill="#844FFF"/>
<path d="M41.1882 11.0928V47.5339H45.2237V19.6704H49.766L41.1882 11.0928Z" fill="#6F2EFF"/>
<path d="M42.2467 35.0361L35.4113 28.2009L28.5762 35.0363H32.1892V47.5341H38.6335V35.0363L42.2467 35.0361Z" fill="#FFC61B"/>
<path d="M35.4114 28.2009L35.374 28.2386V47.5341H38.6336V35.0363L42.2468 35.0361L35.4114 28.2009Z" fill="#E09112"/>
<path d="M16.421 14.3008H15.4446V49.5025H16.421V14.3008Z" fill="#20184E"/>
<path d="M49.2272 46.9121H13.7842V47.8885H49.2272V46.9121Z" fill="#20184E"/>
</g>
<defs>
<clipPath id="clip0_9_17486">
<rect width="64" height="64" fill="white"/>
</clipPath>
</defs>
</svg>
