<svg width="64" height="64" viewBox="0 0 64 64" fill="none" xmlns="http://www.w3.org/2000/svg">
<g clip-path="url(#clip0_9_17391)">
<path d="M32 64C49.6731 64 64 49.6731 64 32C64 14.3269 49.6731 0 32 0C14.3269 0 0 14.3269 0 32C0 49.6731 14.3269 64 32 64Z" fill="white"/>
<path d="M48.7139 22.2802L41.8515 29.1425L32.3514 19.6427L27.1401 14.4267L27.1129 14.3994H27.1084L15.2866 22.281L20.1826 27.9262L15.2911 33.5723L20.1826 38.4687L21.9762 40.2619L20.182 42.0562L40.8696 62.7445C52.6216 59.3599 61.5951 49.4287 63.5822 37.1484L48.7139 22.2802Z" fill="#E9EDF5"/>
<path d="M20.1818 27.9275L32.0004 35.8069V20.0469L20.1818 27.9275Z" fill="#ACBFD6"/>
<path d="M43.8207 27.9275L32.0004 35.8069V20.0469L43.8207 27.9275Z" fill="#CEE2F2"/>
<path d="M20.1818 27.9272V41.7189L32.0004 49.5999V35.8066L20.1818 27.9272Z" fill="#8F61FA"/>
<path d="M43.8207 27.9272V41.7189L37.1942 46.14L32.0004 49.5999V35.8066L43.8207 27.9272Z" fill="#7241D9"/>
<path d="M36.895 14.3999L32.0004 20.0467L43.8207 27.9273L48.7139 22.2799L36.895 14.3999Z" fill="#DAC9FF"/>
<path d="M32.0004 35.8066L27.111 41.4549L15.2903 33.574L20.1818 27.9272L32.0004 35.8066Z" fill="#DAC9FF"/>
<path d="M32.0004 20.0467L20.1818 27.9273L15.2864 22.2799L27.111 14.3999L32.0004 20.0467Z" fill="#DAC9FF"/>
<path d="M48.7139 33.574L36.8935 41.4549L32.0004 35.8066L43.8207 27.9272L48.7139 33.574Z" fill="#DAC9FF"/>
</g>
<defs>
<clipPath id="clip0_9_17391">
<rect width="64" height="64" fill="white"/>
</clipPath>
</defs>
</svg>
