<svg width="58" height="42" viewBox="0 0 58 42" fill="none" xmlns="http://www.w3.org/2000/svg">
<path fill-rule="evenodd" clip-rule="evenodd" d="M50.5566 1.14906C52.057 -0.386491 54.4895 -0.376081 55.9899 1.13865C57.4954 2.65859 57.5006 5.13109 56.0052 6.66144L33.7651 29.3668C33.0174 30.132 32.0291 30.5172 31.0459 30.5172C30.0678 30.5172 29.0846 30.132 28.3369 29.3772C26.8313 27.8573 26.8262 25.3848 28.3215 23.8544L50.5566 1.14906ZM1.12789 17.8106C2.62832 16.2959 5.06076 16.2855 6.56119 17.821L22.5083 35.3367C24.0087 36.8671 24.0036 39.3396 22.498 40.8595C21.7504 41.6143 20.7671 41.9995 19.789 41.9995C18.8007 41.9995 17.8175 41.6143 17.0698 40.8491L1.12277 23.3334C-0.377665 21.8031 -0.372544 19.3306 1.12789 17.8106Z" fill="white"/>
</svg>
