<svg width="97" height="95" viewBox="0 0 97 95" fill="none" xmlns="http://www.w3.org/2000/svg">
<path fill-rule="evenodd" clip-rule="evenodd" d="M13.7626 53.9881L14.6622 52.7263L15.7613 51.5129L39.9608 28.461L41.0746 27.4793L42.2992 26.6142L43.6163 25.8676L45.0077 25.2418L46.4557 24.7397L47.9427 24.3643L49.4513 24.1191L50.964 24.008L52.4633 24.0356L53.9317 24.2065L55.3511 24.526L56.7035 24.9999L84.7298 38.2954L84.7306 38.2957L85.9962 39.1347L87.0794 40.087L87.9734 41.1386L88.6711 42.2751L89.1648 43.4817L89.4466 44.7428L89.5083 46.0428L89.3418 47.3646L88.9389 48.6916L88.2919 50.0052L87.3932 51.2874L65.3276 79.0776L64.2223 80.4219L62.7442 81.6794L60.994 82.714L59.284 83.5688L57.4867 84.2324L55.6303 84.6985L53.743 84.9612L51.8532 85.0158L49.9892 84.8581L48.179 84.4849L46.4495 83.8938L44.828 83.0832L16.1447 65.7594L14.9411 64.9146L13.9578 63.9458L13.193 62.8726L12.6448 61.7145L12.3106 60.49L12.188 59.2175L12.2742 57.9143L12.5669 56.5976L13.0637 55.2836L13.7626 53.9881ZM84.7298 38.2954L56.7035 24.9999L83.2887 37.5837L84.7298 38.2954Z" fill="url(#paint0_linear_7_17242)" fill-opacity="0.5"/>
<path fill-rule="evenodd" clip-rule="evenodd" d="M10.0623 55.0116L11.2659 55.8564L42.3646 74.2227L43.9861 75.0332L45.7154 75.6243L47.5258 75.9975L49.3898 76.1553L51.2795 76.1007L53.1668 75.838L55.0233 75.3719L56.8206 74.7083L58.5306 73.8535L60.1257 72.8147L61.5788 71.6L62.8636 70.2177L86.9025 40.7163L87.8012 39.4342L88.4483 38.1205L88.8512 36.7937L89.0177 35.4719L89.1254 36.9239L89.1871 38.2189L89.2906 39.6064L89.1871 38.2196L89.1871 38.2189L89.1254 36.9239L89.0177 35.4719L88.956 34.1718L89.1253 36.9225L89.1254 36.9232L89.1254 36.9239L89.1871 38.2189L89.2906 39.6064L89.4517 42.2238L89.6089 44.7778L89.6704 46.0596L89.5146 47.3606L89.1341 48.6637L88.5213 49.9513L87.6694 51.2053L64.9601 79.9137L63.75 81.2523L62.3796 82.426L60.8737 83.4268L59.2579 84.2474L57.5581 84.8811L55.8008 85.3219L54.0126 85.5644L52.2202 85.6042L50.4502 85.4374L48.7289 85.0609L47.082 84.4726L45.535 83.6708L15.7027 65.4627L14.541 64.6232L13.5875 63.6632L11.7506 60.2819L11.2076 59.1345L10.0885 56.7534L8.94182 54.3134L7.76708 51.8138L8.31422 52.9696L9.07894 54.0428L10.0623 55.0116Z" fill="url(#paint1_linear_7_17242)"/>
<g filter="url(#filter0_b_7_17242)">
<path fill-rule="evenodd" clip-rule="evenodd" d="M8.88361 44.0849L9.78314 42.8231L10.8823 41.6097L35.2825 17.5032L36.3963 16.5215L37.621 15.6564L38.9381 14.9098L40.3295 14.2841L41.7775 13.7819L43.2645 13.4065L44.773 13.1613L46.2857 13.0503L47.785 13.0778L49.2534 13.2487L50.6729 13.5682L52.0252 14.0422L84.239 27.7241L84.2398 27.7245L85.5054 28.5635L86.5886 29.5157L87.4826 30.5673L88.1803 31.7038L88.6741 32.9104L88.9558 34.1715L89.0175 35.4715L88.851 36.7933L88.4481 38.1203L87.8011 39.4339L86.9024 40.7161L62.8639 70.2168L61.7586 71.5612L60.2805 72.8186L58.5304 73.8532L56.8204 74.708L55.0231 75.3717L53.1666 75.8377L51.2794 76.1005L49.3896 76.155L47.5256 75.9973L45.7154 75.6242L43.9859 75.033L42.3644 74.2225L11.2657 55.8562L10.0621 55.0114L9.07874 54.0426L8.31401 52.9694L7.76576 51.8113L7.4316 50.5868L7.30894 49.3143L7.39521 48.0111L7.68788 46.6944L8.18467 45.3804L8.88361 44.0849ZM84.239 27.7241L52.0252 14.0422L82.7979 27.0124L84.239 27.7241Z" fill="url(#paint2_linear_7_17242)" fill-opacity="0.3"/>
<path d="M84.0019 28.1667L85.2008 28.9614L86.2312 29.8673L87.0767 30.8618L87.733 31.9308L88.1953 33.0607L88.4584 34.2384L88.516 35.452L88.3602 36.6887L87.9815 37.936L87.3695 39.1784L86.5033 40.4143L62.4777 69.8993L62.4763 69.901L61.4007 71.2092L59.9892 72.41L58.2911 73.4139L56.6214 74.2485L54.8751 74.8933L53.071 75.3462L51.2375 75.6015L49.4035 75.6544L47.5974 75.5016L45.8472 75.1408L44.1794 74.5708L42.6036 73.783L11.5368 55.4357L10.3834 54.6261L9.46067 53.717L8.74695 52.7154L8.23653 51.6371L7.9252 50.4964L7.81054 49.3067L7.8916 48.0823L8.16821 46.8378L8.64056 45.5884L9.30884 44.3497L10.1733 43.1371L11.2435 41.9557L35.6238 17.8689L36.7067 16.9144L37.8892 16.0791L39.1644 15.3563L40.5143 14.7492L41.9209 14.2614L43.366 13.8966L44.8315 13.6584L46.2994 13.5506L47.7515 13.5773L49.1694 13.7423L50.5348 14.0497L51.8446 14.5087L84.0019 28.1667Z" stroke="url(#paint3_linear_7_17242)"/>
</g>
<defs>
<filter id="filter0_b_7_17242" x="-5.69116" y="0.050293" width="107.709" height="89.105" filterUnits="userSpaceOnUse" color-interpolation-filters="sRGB">
<feFlood flood-opacity="0" result="BackgroundImageFix"/>
<feGaussianBlur in="BackgroundImageFix" stdDeviation="6.5"/>
<feComposite in2="SourceAlpha" operator="in" result="effect1_backgroundBlur_7_17242"/>
<feBlend mode="normal" in="SourceGraphic" in2="effect1_backgroundBlur_7_17242" result="shape"/>
</filter>
<linearGradient id="paint0_linear_7_17242" x1="70.9143" y1="94.1709" x2="36.8598" y2="18.1756" gradientUnits="userSpaceOnUse">
<stop offset="0.320833" stop-color="#D7D1FF"/>
<stop offset="0.58125" stop-color="#988BFC"/>
<stop offset="0.89375" stop-color="#988BFC" stop-opacity="0.79"/>
</linearGradient>
<linearGradient id="paint1_linear_7_17242" x1="4.25696" y1="80.6632" x2="103.361" y2="47.2622" gradientUnits="userSpaceOnUse">
<stop stop-color="#F0E9FF"/>
<stop offset="0.35896" stop-color="#D2BDFF"/>
<stop offset="0.683604" stop-color="#D2BCFF"/>
<stop offset="1" stop-color="#AC85FF"/>
</linearGradient>
<linearGradient id="paint2_linear_7_17242" x1="68.115" y1="84.8786" x2="34.0605" y2="8.88341" gradientUnits="userSpaceOnUse">
<stop offset="0.320833" stop-color="#F2F0FF"/>
<stop offset="0.685417" stop-color="#B57FDF"/>
<stop offset="0.89375" stop-color="#B57FDF" stop-opacity="0.79"/>
</linearGradient>
<linearGradient id="paint3_linear_7_17242" x1="58.9746" y1="82.5988" x2="41.0264" y2="8.30525" gradientUnits="userSpaceOnUse">
<stop offset="0.180663" stop-color="white" stop-opacity="0.35"/>
<stop offset="0.533255" stop-color="white" stop-opacity="0"/>
</linearGradient>
</defs>
</svg>
