<svg width="41" height="45" viewBox="0 0 41 45" fill="none" xmlns="http://www.w3.org/2000/svg">
<g filter="url(#filter0_f_7_17267)">
<path fill-rule="evenodd" clip-rule="evenodd" d="M15.941 7.41039L16.5442 7.73758L17.1369 8.1551L28.5768 17.5458L29.0685 17.9823L29.5149 18.4738L29.9142 19.0123L30.2645 19.5901L30.5634 20.1994L30.8088 20.8327L30.9981 21.4825L31.1286 22.1414L31.1976 22.8019L31.2018 23.4565L31.1381 24.0976L31.0029 24.7177L26.6737 37.7546L26.6736 37.755L26.3732 38.3566L26.0132 38.8842L25.5993 39.334L25.1375 39.7021L24.6338 39.9843L24.0948 40.1763L23.5267 40.2736L22.9367 40.2719L22.3317 40.1665L21.7194 39.9531L21.1072 39.6274L7.70008 31.4307L7.04947 31.0176L6.41689 30.4358L5.86757 29.7225L5.39944 29.0171L5.01062 28.263L4.70545 27.4722L4.48797 26.6569L4.36186 25.8292L4.33045 25.0014L4.39664 24.1856L4.56299 23.3935L4.83164 22.637L10.8959 9.09354L11.2021 8.51887L11.5748 8.0343L12.0052 7.64018L12.4846 7.33662L13.0047 7.12357L13.5574 7.00089L14.1349 6.96838L14.7294 7.02586L15.3338 7.1732L15.941 7.41039ZM26.6737 37.7546L31.0029 24.7177L26.9086 37.0828L26.6737 37.7546Z" fill="url(#paint0_linear_7_17267)" fill-opacity="0.5"/>
<path fill-rule="evenodd" clip-rule="evenodd" d="M15.2911 5.83912L14.9849 6.41379L8.59296 21.0752L8.32432 21.8317L8.15797 22.6238L8.09177 23.4396L8.12319 24.2675L8.2493 25.0951L8.46677 25.9104L8.77194 26.7012L9.16076 27.4553L9.62889 28.1607L10.1717 28.8057L10.7841 29.3787L11.4611 29.8688L25.727 38.8403L26.3391 39.166L26.9515 39.3794L27.5564 39.4848L28.1464 39.4866L27.5141 39.6124L26.9482 39.7095L26.3439 39.8299L26.9479 39.7095L26.9482 39.7095L27.5141 39.6124L28.1464 39.4866L28.7145 39.3892L27.5146 39.6123L27.5143 39.6123L27.5141 39.6124L26.9482 39.7095L26.3439 39.8299L25.2022 40.0422L24.0881 40.2493L23.528 40.3456L22.9478 40.3475L22.3545 40.2506L21.7554 40.0509L21.1582 39.7442L7.31267 31.3142L6.65892 30.8547L6.06899 30.3158L5.54772 29.708L5.09971 29.0421L4.72932 28.3292L4.44062 27.5807L4.23739 26.8078L4.12305 26.0222L4.10072 25.2352L4.17316 24.4582L4.34276 23.7026L4.61154 22.9793L11.0024 8.88308L11.3086 8.32711L11.679 7.85613L13.0659 6.86602L13.5409 6.56533L14.527 5.94478L15.5375 5.30891L16.5726 4.65749L16.0942 4.96043L15.6638 5.35455L15.2911 5.83912Z" fill="url(#paint1_linear_7_17267)"/>
<g filter="url(#filter1_b_7_17267)">
<path fill-rule="evenodd" clip-rule="evenodd" d="M20.0302 4.73099L20.6334 5.05817L21.2261 5.4757L33.1403 14.8976L33.632 15.3341L34.0784 15.8256L34.4777 16.3642L34.828 16.9419L35.1269 17.5512L35.3723 18.1845L35.5616 18.8343L35.6921 19.4932L35.7611 20.1537L35.7653 20.8083L35.7016 21.4495L35.5664 22.0695L31.2936 36.9679L31.2935 36.9683L30.9931 37.5699L30.6331 38.0974L30.2192 38.5472L29.7574 38.9153L29.2538 39.1975L28.7147 39.3895L28.1466 39.4869L27.5567 39.4852L26.9516 39.3798L26.3393 39.1664L25.7271 38.8407L11.4616 29.8693L10.8109 29.4561L10.1784 28.8744L9.62905 28.1611L9.16092 27.4557L8.77209 26.7016L8.46692 25.9108L8.24945 25.0955L8.12334 24.2678L8.09193 23.44L8.15812 22.6242L8.32447 21.8321L8.59311 21.0756L14.985 6.41414L15.2913 5.83947L15.664 5.3549L16.0943 4.96078L16.5738 4.65721L17.0939 4.44417L17.6466 4.32148L18.224 4.28898L18.8186 4.34645L19.423 4.4938L20.0302 4.73099ZM31.2936 36.9679L35.5664 22.0695L31.5286 36.296L31.2936 36.9679Z" fill="url(#paint2_linear_7_17267)" fill-opacity="0.3"/>
<path d="M30.8256 36.7861L30.561 37.3161L30.2406 37.7856L29.8774 38.1803L29.4775 38.499L29.0462 38.7407L28.5876 38.904L28.1048 38.9868L27.6006 38.9853L27.0776 38.8942L26.5402 38.7069L25.978 38.4078L11.7296 29.4472L11.7277 29.446L11.1166 29.0579L10.5484 28.5354L10.0359 27.87L9.59273 27.2021L9.22885 26.4964L8.94309 25.7559L8.73962 24.9931L8.62191 24.2205L8.59269 23.4508L8.65393 22.6961L8.80689 21.9677L9.05844 21.2594L15.4355 6.63196L15.713 6.11133L16.0338 5.69423L16.3993 5.35948L16.804 5.10321L17.2439 4.92304L17.7153 4.81841L18.2139 4.79034L18.7349 4.84069L19.2721 4.97167L19.8192 5.18537L20.3693 5.48376L20.9268 5.87648L32.819 15.281L33.2799 15.6902L33.6916 16.1434L34.0622 16.6433L34.3889 17.1821L34.6685 17.7521L34.8983 18.3451L35.0754 18.9531L35.1972 19.5679L35.2612 20.1813L35.2652 20.7852L35.2069 21.3712L35.0813 21.9472L30.8256 36.7861Z" stroke="url(#paint3_linear_7_17267)"/>
</g>
</g>
<defs>
<filter id="filter0_f_7_17267" x="0.10083" y="0.289062" width="39.6646" height="44.0586" filterUnits="userSpaceOnUse" color-interpolation-filters="sRGB">
<feFlood flood-opacity="0" result="BackgroundImageFix"/>
<feBlend mode="normal" in="SourceGraphic" in2="BackgroundImageFix" result="shape"/>
<feGaussianBlur stdDeviation="2" result="effect1_foregroundBlur_7_17267"/>
</filter>
<filter id="filter1_b_7_17267" x="-4.90796" y="-8.71094" width="53.6733" height="61.1978" filterUnits="userSpaceOnUse" color-interpolation-filters="sRGB">
<feFlood flood-opacity="0" result="BackgroundImageFix"/>
<feGaussianBlur in="BackgroundImageFix" stdDeviation="6.5"/>
<feComposite in2="SourceAlpha" operator="in" result="effect1_backgroundBlur_7_17267"/>
<feBlend mode="normal" in="SourceGraphic" in2="effect1_backgroundBlur_7_17267" result="shape"/>
</filter>
<linearGradient id="paint0_linear_7_17267" x1="1.36801" y1="34.7019" x2="32.9299" y2="15.6269" gradientUnits="userSpaceOnUse">
<stop offset="0.320833" stop-color="#D7D1FF"/>
<stop offset="0.58125" stop-color="#988BFC"/>
<stop offset="0.89375" stop-color="#988BFC" stop-opacity="0.79"/>
</linearGradient>
<linearGradient id="paint1_linear_7_17267" x1="3.70271" y1="4.67377" x2="23.7393" y2="46.4282" gradientUnits="userSpaceOnUse">
<stop stop-color="#F0E9FF"/>
<stop offset="0.35896" stop-color="#D2BDFF"/>
<stop offset="0.683604" stop-color="#D2BCFF"/>
<stop offset="1" stop-color="#AC85FF"/>
</linearGradient>
<linearGradient id="paint2_linear_7_17267" x1="5.30101" y1="32.9697" x2="36.8629" y2="13.8947" gradientUnits="userSpaceOnUse">
<stop offset="0.320833" stop-color="#F2F0FF"/>
<stop offset="0.685417" stop-color="#B57FDF"/>
<stop offset="0.89375" stop-color="#B57FDF" stop-opacity="0.79"/>
</linearGradient>
<linearGradient id="paint3_linear_7_17267" x1="5.80911" y1="28.8289" x2="37.4935" y2="16.9252" gradientUnits="userSpaceOnUse">
<stop offset="0.180663" stop-color="white" stop-opacity="0.35"/>
<stop offset="0.533255" stop-color="white" stop-opacity="0"/>
</linearGradient>
</defs>
</svg>
