<svg width="30" height="30" viewBox="0 0 30 30" fill="none" xmlns="http://www.w3.org/2000/svg">
<g clip-path="url(#clip0_11_17534)">
<path d="M15.0001 15C14.3142 16.3315 13.3946 17.5288 12.2851 18.535C11.5859 19.2344 10.695 19.7108 9.72503 19.9038C8.75508 20.0969 7.74967 19.9979 6.83595 19.6195C5.92224 19.2412 5.14125 18.6003 4.59178 17.778C4.04231 16.9557 3.74902 15.989 3.74902 15C3.74902 14.011 4.04231 13.0443 4.59178 12.222C5.14125 11.3997 5.92224 10.7589 6.83595 10.3805C7.74967 10.0021 8.75508 9.90314 9.72503 10.0962C10.695 10.2892 11.5859 10.7656 12.2851 11.465C13.3946 12.4712 14.3142 13.6685 15.0001 15ZM15.0001 15C15.686 13.6685 16.6056 12.4712 17.7151 11.465C18.4143 10.7656 19.3052 10.2892 20.2752 10.0962C21.2451 9.90314 22.2505 10.0021 23.1642 10.3805C24.0779 10.7589 24.8589 11.3997 25.4084 12.222C25.9579 13.0443 26.2512 14.011 26.2512 15C26.2512 15.989 25.9579 16.9557 25.4084 17.778C24.8589 18.6003 24.0779 19.2412 23.1642 19.6195C22.2505 19.9979 21.2451 20.0969 20.2752 19.9038C19.3052 19.7108 18.4143 19.2344 17.7151 18.535C16.6056 17.5288 15.686 16.3315 15.0001 15Z" stroke="#344054" stroke-width="1.5" stroke-linecap="round" stroke-linejoin="round"/>
</g>
<defs>
<clipPath id="clip0_11_17534">
<rect width="30" height="30" fill="white"/>
</clipPath>
</defs>
</svg>
