<svg width="156" height="44" viewBox="0 0 156 44" fill="none" xmlns="http://www.w3.org/2000/svg">
<path d="M26.0139 10.8929C27.6836 9.92893 30.3906 9.92893 32.0602 10.8929L56.2455 24.8562C57.9151 25.8202 57.9151 27.3831 56.2455 28.3471L31.92 42.3914C30.2504 43.3554 27.5434 43.3553 25.8737 42.3914L1.68851 28.428C0.0188692 27.4641 0.0188687 25.9012 1.68851 24.9372L26.0139 10.8929Z" fill="url(#paint0_linear_3_324)"/>
<path d="M29.8248 4.51904C31.2857 3.67557 33.6635 3.67028 35.1244 4.51376C36.5854 5.35723 36.5762 6.73005 35.1153 7.57352C33.6544 8.417 31.2766 8.42228 29.8156 7.57881C28.3547 6.73534 28.3638 5.36251 29.8248 4.51904Z" fill="url(#paint1_linear_3_324)"/>
<path d="M30.2339 1.22298C28.5642 0.25901 25.8572 0.259006 24.1876 1.22297L1.25223 14.4647C-0.417411 15.4287 -0.41741 16.9916 1.25223 17.9555L25.4375 31.9189C27.1071 32.8829 29.8141 32.8829 31.4838 31.9189L54.4191 18.6772C56.0888 17.7132 56.0888 16.1503 54.4191 15.1863L50.3764 12.8522C50.3338 12.8791 50.29 12.9055 50.2449 12.9315L46.2771 15.2223C44.6074 16.1863 41.9004 16.1863 40.2308 15.2223L28.0273 8.17668C26.3577 7.21271 26.3577 5.64981 28.0273 4.68584L31.9952 2.395C32.0402 2.369 32.086 2.34371 32.1325 2.31912L30.2339 1.22298Z" fill="url(#paint2_linear_3_324)"/>
<path d="M145 12.1247C144.524 11.8516 143.983 11.715 143.376 11.715C141.667 11.715 140.812 12.681 140.812 14.6129V16.7218H144.423V19.4831H140.827V32.2579H137.307V19.4831H134.652V16.7218H137.307V14.2032C137.307 12.5647 137.844 11.275 138.916 10.3344C139.988 9.38359 141.328 8.9082 142.936 8.9082C143.806 8.9082 144.494 9.00429 145 9.19647V12.1247Z" fill="#344054"/>
<path d="M133.976 12.1247C133.501 11.8516 132.96 11.715 132.353 11.715C130.643 11.715 129.789 12.681 129.789 14.6129V16.7218H133.4V19.4831H129.804V32.2579H126.284V19.4831H123.629V16.7218H126.284V14.2032C126.284 12.5647 126.82 11.275 127.892 10.3344C128.964 9.38359 130.305 8.9082 131.913 8.9082C132.783 8.9082 133.47 9.00429 133.976 9.19647V12.1247Z" fill="#344054"/>
<path d="M120.572 32.2577H117.159V29.8302H117.098C116.026 31.6913 114.453 32.6218 112.38 32.6218C110.852 32.6218 109.654 32.2071 108.784 31.3777C107.924 30.5483 107.494 29.4509 107.494 28.0854C107.494 25.1521 109.183 23.4428 112.562 22.9573L117.174 22.3049C117.174 20.0897 116.122 18.9822 114.018 18.9822C112.167 18.9822 110.498 19.6194 109.011 20.8939V17.8139C110.65 16.8429 112.541 16.3574 114.686 16.3574C118.61 16.3574 120.572 18.2893 120.572 22.1531V32.2577ZM117.174 24.6262L113.912 25.0813C112.9 25.2128 112.137 25.4606 111.621 25.8248C111.115 26.1788 110.862 26.8059 110.862 27.7061C110.862 28.3635 111.095 28.9047 111.56 29.3295C112.036 29.7442 112.668 29.9516 113.457 29.9516C114.529 29.9516 115.414 29.5773 116.112 28.8288C116.82 28.0702 117.174 27.1194 117.174 25.9765V24.6262Z" fill="#344054"/>
<path d="M105.302 32.0914C104.614 32.4353 103.709 32.6072 102.586 32.6072C99.5722 32.6072 98.0651 31.1608 98.0651 28.268V19.4834H95.4707V16.7221H98.0651V13.1264L101.585 12.125V16.7221H105.302V19.4834H101.585V27.2515C101.585 28.1719 101.752 28.8294 102.086 29.2239C102.419 29.6183 102.976 29.8156 103.755 29.8156C104.351 29.8156 104.867 29.6436 105.302 29.2997V32.0914Z" fill="#344054"/>
<path d="M82.416 31.7722V28.5102C83.7309 29.5116 85.1824 30.0122 86.7704 30.0122C88.8945 30.0122 89.9565 29.3851 89.9565 28.1309C89.9565 27.7769 89.8655 27.4785 89.6834 27.2358C89.5013 26.9829 89.2535 26.7604 88.94 26.5682C88.6365 26.376 88.2724 26.2041 87.8476 26.0523C87.4329 25.9006 86.9676 25.7287 86.4518 25.5365C85.8145 25.2836 85.238 25.0156 84.7222 24.7324C84.2164 24.4492 83.7916 24.1306 83.4477 23.7765C83.1139 23.4124 82.8611 23.0028 82.6891 22.5476C82.5172 22.0924 82.4312 21.5614 82.4312 20.9545C82.4312 20.2061 82.6082 19.5486 82.9622 18.9822C83.3162 18.4056 83.7916 17.9252 84.3884 17.5408C84.9851 17.1464 85.6628 16.853 86.4214 16.6609C87.18 16.4586 87.9639 16.3574 88.7731 16.3574C90.2094 16.3574 91.4939 16.5749 92.6268 17.0098V20.0897C91.5344 19.3413 90.2802 18.967 88.8641 18.967C88.4191 18.967 88.0145 19.0125 87.6504 19.1036C87.2963 19.1946 86.9929 19.321 86.74 19.4829C86.4872 19.6447 86.2899 19.8419 86.1483 20.0746C86.0067 20.2971 85.9359 20.5449 85.9359 20.818C85.9359 21.1518 86.0067 21.435 86.1483 21.6676C86.2899 21.9003 86.4973 22.1076 86.7704 22.2897C87.0536 22.4616 87.3874 22.6235 87.7717 22.7752C88.1662 22.9168 88.6163 23.0736 89.122 23.2455C89.7896 23.5186 90.3864 23.7968 90.9123 24.08C91.4484 24.3632 91.9036 24.6869 92.2778 25.051C92.6521 25.405 92.9403 25.8197 93.1426 26.2951C93.3449 26.7604 93.4461 27.3167 93.4461 27.964C93.4461 28.753 93.264 29.4408 92.8999 30.0274C92.5358 30.6141 92.0502 31.0996 91.4434 31.4839C90.8365 31.8683 90.1335 32.1515 89.3345 32.3336C88.5455 32.5257 87.7111 32.6218 86.8311 32.6218C85.1318 32.6218 83.6601 32.3386 82.416 31.7722Z" fill="#344054"/>
<path d="M68.9488 24.4279L73.1152 32.4989H77.1152L72.5597 24.3521L70.3901 19.8308L66.1116 10.5H62L68.9488 24.4279Z" fill="#344054"/>
<path d="M75 23.5L81.2991 10.5H77.4757L73 19.8308L75 23.5Z" fill="#344054"/>
<defs>
<linearGradient id="paint0_linear_3_324" x1="44.1529" y1="17.8746" x2="28.967" y2="44.1773" gradientUnits="userSpaceOnUse">
<stop stop-color="#6F2EFF"/>
<stop offset="1" stop-color="#481DA6"/>
</linearGradient>
<linearGradient id="paint1_linear_3_324" x1="35.1244" y1="4.51377" x2="32.47" y2="9.11134" gradientUnits="userSpaceOnUse">
<stop stop-color="#FFCB6D"/>
<stop offset="1" stop-color="#F5AC28"/>
</linearGradient>
<linearGradient id="paint2_linear_3_324" x1="42.3265" y1="8.20465" x2="27.8357" y2="33.3035" gradientUnits="userSpaceOnUse">
<stop stop-color="#6941C6"/>
<stop offset="1" stop-color="#642EDC"/>
</linearGradient>
</defs>
</svg>
