<svg width="24" height="24" viewBox="0 0 24 24" fill="none" xmlns="http://www.w3.org/2000/svg">
<path fill-rule="evenodd" clip-rule="evenodd" d="M12 24C18.6281 24 24 18.6272 24 12C24 5.37281 18.6281 0 12 0C5.37187 0 0 5.37281 0 12C0 18.6272 5.37187 24 12 24ZM9.49687 4.86891C9.7575 4.96875 9.975 5.17125 10.0894 5.44594L11.1394 7.96828C11.3175 8.39625 11.1937 8.88984 10.8337 9.18375L9.54 10.2417C10.4137 12.0895 11.91 13.5858 13.7587 14.46L14.8181 13.1658C15.0131 12.9262 15.2981 12.7917 15.5925 12.7814C15.7406 12.7762 15.8906 12.802 16.035 12.8616L18.555 13.9116C19.0425 14.1136 19.3031 14.6466 19.1625 15.1556L18.5325 17.4656C18.4069 17.9227 17.9925 18.24 17.52 18.24C11.025 18.24 5.76 12.9745 5.76 6.48C5.76 6.21375 5.86125 5.96578 6.03187 5.77734C6.16313 5.63156 6.33562 5.52187 6.53437 5.46703L8.84437 4.83703C9.0675 4.77609 9.29437 4.79156 9.49687 4.86891Z" fill="#667085"/>
</svg>
