<svg width="24" height="26" viewBox="0 0 24 26" fill="none" xmlns="http://www.w3.org/2000/svg">
<path d="M12 0.398438C5.37256 0.398438 0 5.9284 0 12.75C0 19.5716 5.37256 25.1016 12 25.1016C18.6274 25.1016 24 19.5716 24 12.75C24 5.9284 18.6274 0.398438 12 0.398438ZM17.5622 8.7985C17.3816 10.7516 16.6002 15.4911 16.2025 17.6787C16.0343 18.6042 15.7031 18.9146 15.3825 18.945C14.6857 19.011 14.1564 18.471 13.4815 18.0156C12.4253 17.3029 11.8287 16.8593 10.8034 16.164C9.61868 15.3604 10.3867 14.9188 11.0619 14.1967C11.2386 14.0078 14.309 11.1332 14.3685 10.8724C14.3759 10.8398 14.383 10.718 14.3126 10.6541C14.2423 10.5901 14.1389 10.6118 14.0641 10.6292C13.9582 10.6539 12.271 11.8018 9.00247 14.0728C8.5236 14.4112 8.08982 14.5762 7.70114 14.5675C7.27268 14.558 6.4485 14.3182 5.83577 14.1132C5.08427 13.8617 4.48698 13.7288 4.539 13.3018C4.5661 13.0793 4.86368 12.8519 5.43174 12.6195C8.93 11.0507 11.2627 10.0164 12.4299 9.51663C15.7624 8.08987 16.4549 7.84205 16.9062 7.83378C17.0055 7.83209 17.2275 7.85739 17.3712 7.97747C17.4668 8.063 17.5278 8.18237 17.542 8.31195C17.5664 8.47285 17.5731 8.63605 17.5622 8.7985Z" fill="#667085"/>
</svg>
